<?xml version="1.0" encoding="UTF-8"?>
<svg id="Layer_1" data-name="Layer 1" xmlns="http://www.w3.org/2000/svg" viewBox="0 0 191.32 56.69">
  <g>
    <path d="M181.84,13.44h0L173.44,.39c-.15-.24-.41-.38-.69-.38h-5.6c-.15,0-.28,.12-.28,.28,0,.06,.02,.11,.05,.16l8.76,13.6c.06,.09,.06,.21,0,.3l-8.76,13.56c-.09,.13-.05,.3,.08,.39,.05,.03,.1,.05,.16,.05h5.6c.28,0,.54-.14,.69-.38l8.4-13.01c.3-.46,.3-1.06,0-1.52Z"/>
    <path d="M183.57,16.1c-.08-.13-.25-.17-.38-.09-.04,.02-.07,.05-.09,.09l-2.31,3.57c-.45,.7-.45,1.59,0,2.29l3.93,6.07c.13,.2,.35,.32,.59,.32h5.8c.12,0,.21-.09,.21-.21,0-.04-.01-.08-.03-.11l-7.71-11.93Z"/>
    <path d="M183.1,12.27c.08,.13,.25,.17,.38,.09,.04-.02,.07-.05,.09-.09L191.29,.32c.06-.1,.04-.23-.06-.29-.03-.02-.07-.03-.11-.03h-5.8c-.24,0-.46,.12-.59,.32l-3.93,6.07c-.45,.7-.45,1.59,0,2.29l2.31,3.59Z"/>
  </g>
  <g>
    <path d="M41.99,0V1.4c0,.56-.19,1.11-.56,1.64L5.45,53.29H41.67v3.41H0v-1.48c0-.51,.16-.99,.48-1.44L36.54,3.41H1.04V0H41.99Z"/>
    <path d="M91.76,0V3.49h-19.91V56.69h-4.09V3.49h-20.03V0h44.03Z"/>
    <g>
      <rect x="97.5" y="27.24" width="25.01" height="3.41"/>
      <rect x="97.5" y="0" width="29.02" height="3.41"/>
    </g>
    <path d="M147.36,32.17c-.51-.67-1.08-1.2-1.72-1.6,2.48-.27,4.71-.83,6.69-1.7,1.98-.87,3.67-1.98,5.07-3.33,1.4-1.35,2.48-2.92,3.23-4.71,.75-1.79,1.12-3.77,1.12-5.93,0-4.89-1.62-8.59-4.85-11.12C153.66,1.26,148.77,0,142.23,0h-9.96V3.25h9.96c5.05,0,8.89,.98,11.54,2.92,2.64,1.95,3.97,4.94,3.97,8.98,0,1.98-.36,3.75-1.08,5.33-.72,1.58-1.77,2.92-3.15,4.05s-3.06,1.98-5.05,2.58c-1.99,.6-4.24,.9-6.75,.9h-9.44v3.05h7c1.1,0,1.9,.12,2.42,.36,.52,.24,1.01,.65,1.46,1.24l18.15,23c.29,.37,.59,.64,.9,.8,.31,.16,.67,.24,1.1,.24h3.57l-19.51-24.52Z"/>
  </g>
</svg>