<?xml version="1.0" encoding="UTF-8"?>
<svg id="Layer_1" data-name="Layer 1" xmlns="http://www.w3.org/2000/svg" viewBox="0 0 122.26 141.73">
  <defs>
    <style>
      .cls-1 {
        fill: #fff;
      }

      .cls-2 {
        fill: none;
      }
    </style>
  </defs>
  <path class="cls-2" d="M29.89,133.95l-7.27-18.42c-.08-.19-.19-.34-.34-.44l-.38-.24-7.12,11.03,.92,.59,6.17-9.56,7.29,18.47c.07,.17,.17,.29,.3,.38l.4,.26,7.24-11.22-.92-.59-6.3,9.75Z"/>
  <rect class="cls-2" x="29.88" y="95.74" width="9.3" height="1.09" transform="translate(-65.09 73.06) rotate(-57.15)"/>
  <polygon class="cls-2" points="31.49 102.05 30.55 101.44 22.89 113.3 23.83 113.91 27.31 108.51 41.64 117.76 42.35 116.66 28.02 107.41 31.49 102.05"/>
  <path class="cls-2" d="M48.15,92.25c.36-.72,.59-1.41,.7-2.1,.11-.68,.11-1.33-.01-1.94-.12-.61-.35-1.17-.71-1.69-.35-.51-.82-.96-1.4-1.33-1.32-.85-2.59-1.06-3.84-.63-1.24,.43-2.43,1.53-3.57,3.29l-1.73,2.68,.87,.56,1.73-2.68c.88-1.36,1.81-2.23,2.79-2.6,.98-.37,2.02-.21,3.11,.49,.53,.34,.95,.75,1.25,1.22,.3,.47,.48,.98,.54,1.55,.06,.57,0,1.17-.18,1.81s-.49,1.3-.93,1.97l-1.64,2.54,.82,.53,1.22-1.88c.19-.29,.36-.49,.52-.59,.16-.1,.35-.16,.59-.18l9.35-.89c.15-.01,.28-.05,.37-.1,.1-.05,.18-.14,.26-.25l.62-.96-9.99,.99c-.27,.02-.51,.08-.73,.19Z"/>
  <rect class="cls-2" x="37.51" y="101.02" width="8.02" height="1.09" transform="translate(-66.33 81.35) rotate(-57.15)"/>
  <path class="cls-1" d="M74.87,67.2h0L32.85,1.97c-.76-1.18-2.06-1.89-3.46-1.89H1.4C.63,.07,0,.69,0,1.46c0,.28,.08,.55,.23,.78L44.02,70.23c.3,.46,.3,1.06,0,1.52L.23,139.57c-.43,.64-.25,1.51,.39,1.93,.23,.15,.5,.23,.78,.23H29.39c1.4,0,2.7-.72,3.46-1.89l41.99-65.03c1.5-2.31,1.51-5.29,.02-7.61Zm-38.28,24.89l.92,.59-5.05,7.81-.92-.59,5.05-7.81Zm-6.73,43.92l-.4-.26c-.14-.09-.24-.22-.3-.38l-7.29-18.47-6.17,9.56-.92-.59,7.12-11.03,.38,.24c.15,.1,.27,.24,.34,.44l7.27,18.42,6.3-9.75,.92,.59-7.24,11.22Zm11.78-18.25l-14.33-9.25-3.48,5.39-.94-.61,7.66-11.86,.94,.61-3.46,5.36,14.33,9.25-.71,1.1Zm-1.84-12.54l-.92-.59,4.35-6.73,.92,.59-4.35,6.73Zm18.45-13.19c-.07,.11-.16,.2-.26,.25-.1,.05-.22,.09-.37,.1l-9.35,.89c-.24,.02-.43,.08-.59,.18-.16,.1-.33,.29-.52,.59l-1.22,1.88-.82-.53,1.64-2.54c.44-.68,.75-1.33,.93-1.97s.24-1.24,.18-1.81c-.06-.57-.24-1.08-.54-1.55-.3-.47-.71-.87-1.25-1.22-1.09-.7-2.12-.87-3.11-.49-.98,.37-1.92,1.24-2.79,2.6l-1.73,2.68-.87-.56,1.73-2.68c1.14-1.76,2.33-2.86,3.57-3.29,1.24-.43,2.52-.22,3.84,.63,.58,.38,1.05,.82,1.4,1.33,.35,.51,.59,1.08,.71,1.69,.12,.61,.12,1.26,.01,1.94-.11,.68-.34,1.38-.7,2.1,.22-.1,.46-.16,.73-.19l9.99-.99-.62,.96Z"/>
  <path class="cls-1" d="M83.5,80.48c-.41-.65-1.27-.85-1.92-.44-.18,.11-.33,.26-.44,.44l-11.54,17.86c-2.25,3.48-2.25,7.96,0,11.44l19.65,30.35c.65,1,1.77,1.6,2.96,1.59h28.98c.58,0,1.04-.47,1.04-1.05,0-.2-.06-.4-.17-.57l-38.56-59.63Z"/>
  <path class="cls-1" d="M81.14,61.33c.41,.65,1.27,.85,1.92,.44,.18-.11,.33-.26,.44-.44L122.09,1.62c.32-.48,.18-1.13-.3-1.45-.17-.11-.37-.17-.57-.17h-29.01c-1.19,0-2.31,.59-2.96,1.59l-19.65,30.35c-2.25,3.48-2.25,7.96,0,11.44l11.54,17.94Z"/>
</svg>