<?xml version="1.0" encoding="UTF-8"?>
<svg id="Layer_1" data-name="Layer 1" xmlns="http://www.w3.org/2000/svg" viewBox="0 0 171.06 141.73">
  <defs>
    <style>
      .cls-1 {
        fill: #fff;
      }

      .cls-2 {
        fill: none;
      }

      .cls-3 {
        fill: #bd9e56;
      }
    </style>
  </defs>
  <g>
    <path class="cls-2" d="M78.69,133.95l-7.27-18.42c-.08-.19-.19-.34-.34-.44l-.38-.24-7.12,11.03,.92,.59,6.17-9.56,7.29,18.47c.07,.17,.17,.29,.3,.38l.4,.26,7.24-11.22-.92-.59-6.3,9.75Z"/>
    <rect class="cls-2" x="78.68" y="95.74" width="9.3" height="1.09" transform="translate(-42.76 114.06) rotate(-57.15)"/>
    <polygon class="cls-2" points="80.29 102.05 79.35 101.44 71.69 113.3 72.63 113.91 76.11 108.51 90.44 117.76 91.15 116.66 76.83 107.41 80.29 102.05"/>
    <path class="cls-2" d="M96.95,92.25c.36-.72,.59-1.41,.7-2.1,.11-.68,.11-1.33-.01-1.94-.12-.61-.35-1.17-.71-1.69-.35-.51-.82-.96-1.4-1.33-1.32-.85-2.59-1.06-3.84-.63-1.24,.43-2.43,1.53-3.57,3.29l-1.73,2.68,.87,.56,1.73-2.68c.88-1.36,1.81-2.23,2.79-2.6,.98-.37,2.02-.21,3.11,.49,.53,.34,.95,.75,1.25,1.22,.3,.47,.48,.98,.54,1.55,.06,.57,0,1.17-.18,1.81s-.49,1.3-.93,1.97l-1.64,2.54,.82,.53,1.22-1.88c.19-.29,.36-.49,.52-.59,.16-.1,.35-.16,.59-.18l9.35-.89c.15-.01,.28-.05,.37-.1,.1-.05,.18-.14,.26-.25l.62-.96-9.99,.99c-.27,.02-.51,.08-.73,.19Z"/>
    <rect class="cls-2" x="86.31" y="101.02" width="8.02" height="1.09" transform="translate(-44 122.35) rotate(-57.15)"/>
    <path class="cls-3" d="M123.67,67.2h0L81.65,1.97c-.76-1.18-2.06-1.89-3.46-1.89h-27.99c-.77,0-1.4,.61-1.4,1.38,0,.28,.08,.55,.23,.78l43.79,67.99c.3,.46,.3,1.06,0,1.52l-43.79,67.82c-.43,.64-.25,1.51,.39,1.93,.23,.15,.5,.23,.78,.23h27.99c1.4,0,2.7-.72,3.46-1.89l41.99-65.03c1.5-2.31,1.51-5.29,.02-7.61Zm-38.28,24.89l.92,.59-5.05,7.81-.92-.59,5.05-7.81Zm-6.73,43.92l-.4-.26c-.14-.09-.24-.22-.3-.38l-7.29-18.47-6.17,9.56-.92-.59,7.12-11.03,.38,.24c.15,.1,.27,.24,.34,.44l7.27,18.42,6.3-9.75,.92,.59-7.24,11.22Zm11.78-18.25l-14.33-9.25-3.48,5.39-.94-.61,7.66-11.86,.94,.61-3.46,5.36,14.33,9.25-.71,1.1Zm-1.84-12.54l-.92-.59,4.35-6.73,.92,.59-4.35,6.73Zm18.45-13.19c-.07,.11-.16,.2-.26,.25-.1,.05-.22,.09-.37,.1l-9.35,.89c-.24,.02-.43,.08-.59,.18-.16,.1-.33,.29-.52,.59l-1.22,1.88-.82-.53,1.64-2.54c.44-.68,.75-1.33,.93-1.97s.24-1.24,.18-1.81c-.06-.57-.24-1.08-.54-1.55-.3-.47-.71-.87-1.25-1.22-1.09-.7-2.12-.87-3.11-.49-.98,.37-1.92,1.24-2.79,2.6l-1.73,2.68-.87-.56,1.73-2.68c1.14-1.76,2.33-2.86,3.57-3.29,1.24-.43,2.52-.22,3.84,.63,.58,.38,1.05,.82,1.4,1.33,.35,.51,.59,1.08,.71,1.69,.12,.61,.12,1.26,.01,1.94-.11,.68-.34,1.38-.7,2.1,.22-.1,.46-.16,.73-.19l9.99-.99-.62,.96Z"/>
    <path class="cls-1" d="M132.3,80.48c-.41-.65-1.27-.85-1.92-.44-.18,.11-.33,.26-.44,.44l-11.54,17.86c-2.25,3.48-2.25,7.96,0,11.44l19.65,30.35c.65,1,1.77,1.6,2.96,1.59h28.98c.58,0,1.04-.47,1.04-1.05,0-.2-.06-.4-.17-.57l-38.56-59.63Z"/>
    <path class="cls-1" d="M129.94,61.33c.41,.65,1.27,.85,1.92,.44,.18-.11,.33-.26,.44-.44L170.89,1.62c.32-.48,.18-1.13-.3-1.45-.17-.11-.37-.17-.57-.17h-29.01c-1.19,0-2.31,.59-2.96,1.59l-19.65,30.35c-2.25,3.48-2.25,7.96,0,11.44l11.54,17.94Z"/>
  </g>
  <g>
    <path class="cls-3" d="M.22,129.44H2.42v9.57h6.62v-7.75h2.12v7.75h6.8v-9.57h2.2v12.29H.22v-12.29Z"/>
    <path class="cls-3" d="M9.92,116.75L.22,123.34v-2.69c0-.19,.03-.34,.1-.43,.07-.09,.16-.18,.28-.25l7.99-5.2c-.19-.06-.41-.16-.64-.29l-7.29-4.91c-.13-.08-.23-.17-.31-.27-.08-.1-.12-.22-.12-.35v-2.57l9.57,6.61,10.37-6.83v2.67c0,.2-.05,.36-.16,.48-.11,.12-.23,.21-.36,.29l-8.36,5.34c.19,.06,.38,.15,.56,.25l7.81,5.2c.13,.08,.25,.18,.36,.29s.16,.26,.16,.45v2.51l-10.24-6.86Z"/>
    <path class="cls-3" d="M12.71,96.35h7.46v2.69H.22v-5.89c0-1.26,.15-2.36,.44-3.29s.71-1.7,1.25-2.32c.54-.61,1.19-1.07,1.95-1.37,.76-.3,1.61-.45,2.55-.45s1.78,.16,2.55,.49c.77,.32,1.43,.8,1.99,1.43,.56,.63,.99,1.4,1.3,2.33,.31,.93,.47,1.99,.47,3.19v3.2Zm-2.14,0v-3.2c0-.77-.1-1.45-.31-2.04s-.49-1.08-.86-1.48c-.37-.4-.8-.7-1.31-.9-.51-.2-1.07-.31-1.68-.31-1.27,0-2.26,.39-2.98,1.18-.71,.78-1.07,1.97-1.07,3.55v3.2H10.56Z"/>
    <path class="cls-3" d="M17.9,75.44v-8.63h2.27v11.33H.22v-2.7H17.9Z"/>
    <path class="cls-3" d="M10.2,42.25c1.49,0,2.86,.24,4.11,.71s2.32,1.14,3.22,2c.9,.86,1.6,1.9,2.09,3.11s.74,2.55,.74,4.01-.25,2.8-.74,4.01-1.19,2.24-2.09,3.1c-.9,.86-1.97,1.53-3.22,2s-2.62,.71-4.11,.71-2.86-.24-4.11-.71-2.32-1.14-3.23-2-1.61-1.9-2.11-3.1c-.5-1.21-.75-2.54-.75-4.01s.25-2.8,.75-4.01c.5-1.21,1.2-2.25,2.11-3.11s1.98-1.53,3.23-2,2.62-.71,4.11-.71Zm0,2.77c-1.23,0-2.32,.17-3.3,.5-.98,.33-1.8,.81-2.47,1.42-.67,.61-1.19,1.35-1.55,2.23-.36,.87-.54,1.85-.54,2.92s.18,2.04,.54,2.91c.36,.87,.88,1.62,1.55,2.23,.67,.62,1.5,1.09,2.47,1.43,.97,.33,2.07,.5,3.3,.5s2.32-.17,3.29-.5,1.79-.81,2.46-1.43c.67-.62,1.19-1.36,1.54-2.23s.54-1.84,.54-2.91-.18-2.05-.54-2.92-.87-1.61-1.54-2.23c-.67-.61-1.49-1.09-2.46-1.42s-2.07-.5-3.29-.5Z"/>
    <path class="cls-3" d="M11.84,31.42h8.32v2.69H.22v-5.64c0-1.26,.13-2.35,.38-3.27,.26-.92,.62-1.68,1.11-2.28,.48-.6,1.06-1.04,1.75-1.33s1.45-.43,2.29-.43c.7,0,1.36,.11,1.98,.33,.61,.22,1.16,.55,1.65,.97,.49,.42,.9,.94,1.24,1.54,.34,.61,.6,1.3,.78,2.07,.19-.33,.48-.63,.85-.89l7.92-5.82v2.39c0,.49-.19,.85-.57,1.08l-7.12,5.18c-.22,.16-.38,.33-.48,.52s-.15,.46-.15,.83v2.05Zm-1.96,0v-2.83c0-.79-.1-1.48-.29-2.08s-.46-1.1-.81-1.5c-.35-.4-.76-.71-1.25-.91s-1.02-.31-1.6-.31c-1.19,0-2.08,.39-2.69,1.18-.6,.78-.9,1.95-.9,3.5v2.95h7.53Z"/>
    <path class="cls-3" d="M.22,0H2.42V9.57h6.62V1.82h2.12v7.75h6.8V0h2.2V12.29H.22V0Z"/>
  </g>
</svg>